<svg width="1920" height="951" viewBox="0 0 1920 951" fill="none" xmlns="http://www.w3.org/2000/svg">
<path d="M1393.4 501.053V500.81C1393.4 450.649 1380.34 416.833 1362.39 393.675C1344.3 370.353 1319.9 356.113 1294.4 347.587C1268.81 339.031 1242.84 336.489 1222.98 336.173C1217.44 336.085 1212.42 336.17 1208.09 336.338V670.616C1212.6 670.781 1217.85 670.858 1223.66 670.744C1243.94 670.348 1270.39 667.647 1296.28 658.786C1322.08 649.958 1346.58 635.291 1364.42 611.357C1382.15 587.579 1394.66 552.837 1393.4 501.296L1393.4 501.053Z" fill="url(#paint0_radial)"/>
<path fill-rule="evenodd" clip-rule="evenodd" d="M1920 0H0V951H1920V800.619H1597.24V669.143H1920V614.81C1885.26 637.059 1843.96 649.952 1799.63 649.952C1675.88 649.952 1575.79 549.464 1575.79 425.476C1575.79 301.489 1675.88 201 1799.63 201C1843.96 201 1885.26 213.894 1920 236.142V0ZM941.33 399.995L927.166 385.787C898.549 357.082 855.295 337.857 812.584 337.857C761.282 337.857 721.141 356.101 693.738 385.342C666.189 414.74 650.195 456.69 650.195 506.19C650.195 608.203 721.764 674.524 812.584 674.524C855.295 674.524 898.549 655.299 927.166 626.594L941.33 612.386L1033.94 705.286L1019.87 719.406C968.094 771.338 893.357 806 812.584 806C651.797 806 519 689.882 519 506.19C519 334.295 640.036 206.381 812.584 206.381C893.357 206.381 968.094 241.042 1019.87 292.975L1033.94 307.095L941.33 399.995ZM1076.9 211.762H1188.09C1253.43 211.762 1337.15 219.807 1405.01 261.085C1474.67 303.451 1524.59 378.938 1524.59 506.19C1524.59 630.672 1476.09 706.077 1407.24 749.146C1340.06 791.17 1256.33 800.619 1188.09 800.619H1076.9V211.762Z" fill="url(#paint1_radial)"/>
<path d="M1892.29 425.476C1892.29 371.892 1852.9 332.476 1799.63 332.476C1751.73 332.476 1706.98 377.273 1706.98 425.476C1706.98 479.06 1746.36 518.476 1799.63 518.476C1852.9 518.476 1892.29 479.06 1892.29 425.476Z" fill="url(#paint2_radial)"/>
<defs>
<radialGradient id="paint0_radial" cx="0" cy="0" r="1" gradientUnits="userSpaceOnUse" gradientTransform="translate(974.5 475.5) rotate(90) scale(698.234 741.045)">
<stop stop-color="#F7F7F7"/>
<stop offset="1" stop-color="#EDEDED"/>
</radialGradient>
<radialGradient id="paint1_radial" cx="0" cy="0" r="1" gradientUnits="userSpaceOnUse" gradientTransform="translate(974.5 475.5) rotate(90) scale(698.234 741.045)">
<stop stop-color="#F7F7F7"/>
<stop offset="1" stop-color="#EDEDED"/>
</radialGradient>
<radialGradient id="paint2_radial" cx="0" cy="0" r="1" gradientUnits="userSpaceOnUse" gradientTransform="translate(974.5 475.5) rotate(90) scale(698.234 741.045)">
<stop stop-color="#F7F7F7"/>
<stop offset="1" stop-color="#EDEDED"/>
</radialGradient>
</defs>
</svg>
